<?xml version="1.0" encoding="utf-8"?>
<!-- Generator: Adobe Illustrator 27.1.1, SVG Export Plug-In . SVG Version: 6.00 Build 0)  -->
<svg version="1.1" id="Layer_1" xmlns="http://www.w3.org/2000/svg" xmlns:xlink="http://www.w3.org/1999/xlink" x="0px" y="0px"
	 viewBox="0 0 25 25" style="enable-background:new 0 0 25 25;" xml:space="preserve">
<style type="text/css">
	.st0{fill:#FFFFFF;}
</style>
<g>
	
		<image style="overflow:visible;" width="492" height="346" xlink:href="91979384.png"  transform="matrix(3.273655e-02 0 0 3.273655e-02 4.4468 6.8366)">
	</image>
	<path class="st0" d="M19.7,8.5H5.3c-0.5,0-0.8-0.4-0.8-0.8v0c0-0.5,0.4-0.8,0.8-0.8h14.4c0.5,0,0.8,0.4,0.8,0.8v0
		C20.6,8.1,20.2,8.5,19.7,8.5z"/>
	<path class="st0" d="M19.7,13.3H5.3c-0.5,0-0.8-0.4-0.8-0.8v0c0-0.5,0.4-0.8,0.8-0.8h14.4c0.5,0,0.8,0.4,0.8,0.8v0
		C20.6,13,20.2,13.3,19.7,13.3z"/>
	<path class="st0" d="M19.7,18.2H5.3c-0.5,0-0.8-0.4-0.8-0.8v0c0-0.5,0.4-0.8,0.8-0.8h14.4c0.5,0,0.8,0.4,0.8,0.8v0
		C20.6,17.8,20.2,18.2,19.7,18.2z"/>
</g>
</svg>
