<?xml version="1.0" encoding="utf-8"?>
<!-- Generator: Adobe Illustrator 27.1.1, SVG Export Plug-In . SVG Version: 6.00 Build 0)  -->
<svg version="1.1" id="Layer_1" xmlns="http://www.w3.org/2000/svg" xmlns:xlink="http://www.w3.org/1999/xlink" x="0px" y="0px"
	 viewBox="0 0 25 25" style="enable-background:new 0 0 25 25;" xml:space="preserve">
<style type="text/css">
	.st0{fill:#FFFFFF;}
</style>
<g>
	<g>
		<path class="st0" d="M12.5,14.3c1,0,1.8-0.8,1.8-1.8V8.3c0-1-0.8-1.8-1.8-1.8s-1.8,0.8-1.8,1.8v4.2C10.7,13.5,11.6,14.3,12.5,14.3
			z"/>
		<path class="st0" d="M10.4,14.6c-0.4-0.4-0.7-0.8-0.8-1.5c-0.1-0.3-0.3-0.5-0.6-0.5l0,0c-0.4,0-0.7,0.3-0.6,0.7
			c0.1,0.9,0.6,1.6,1.2,2.2l0,0 M9.6,15.5c0.6,0.6,1.4,1,2.4,1.1l0,0h1.2l0,0l0,0c1.8-0.2,3.2-1.6,3.5-3.4c0.1-0.4-0.2-0.7-0.6-0.7
			l0,0c-0.3,0-0.5,0.2-0.6,0.5c-0.2,1.3-1.4,2.5-2.9,2.5c-0.8,0-1.6-0.4-2.1-0.9"/>
	</g>
	<path class="st0" d="M13.1,16.4v1.5c0,0.3-0.3,0.6-0.6,0.6l0,0c-0.3,0-0.6-0.3-0.6-0.6v-1.5"/>
</g>
</svg>
