<?xml version="1.0" encoding="utf-8"?>
<!-- Generator: Adobe Illustrator 27.1.1, SVG Export Plug-In . SVG Version: 6.00 Build 0)  -->
<svg version="1.1" id="Layer_1" xmlns="http://www.w3.org/2000/svg" xmlns:xlink="http://www.w3.org/1999/xlink" x="0px" y="0px"
	 viewBox="0 0 25 25" style="enable-background:new 0 0 25 25;" xml:space="preserve">
<style type="text/css">
	.st0{fill:none;stroke:#FFFFFF;stroke-width:0.75;stroke-miterlimit:10;}
	.st1{fill-rule:evenodd;clip-rule:evenodd;fill:#FFFFFF;}
</style>
<g>
	<path class="st0" d="M11.1,8.6c-0.6,0.3-0.9,0.6-1.2,0.9c-0.3,0.4-0.3,0.9-0.4,1.4c0,0.4,0,0.9,0,1.2c0,0.6,0,1.2-0.2,1.7
		c-0.1,0.3-0.3,0.5-0.4,0.8c-0.1,0.2-0.3,0.3-0.3,0.5c-0.2,0.3-0.3,0.4-0.3,0.7c0,0.2-0.1,0.3,0,0.5h8.4c0-0.2,0-0.3,0-0.5
		c-0.1-0.3-0.2-0.4-0.3-0.7c-0.1-0.2-0.2-0.3-0.3-0.5c-0.2-0.3-0.3-0.5-0.4-0.8c-0.2-0.4-0.2-1-0.2-1.7c0-0.4,0-0.8,0-1.2
		c0-0.5-0.2-0.9-0.4-1.4s-0.6-0.8-1.2-0.9c-0.2-0.1-0.7-0.3-1.4-0.3C11.8,8.3,11.3,8.5,11.1,8.6z"/>
	<path class="st1" d="M13.6,17.5c0.3-0.3,0.4-0.4,0.5-0.8h-1.6h-1.6c0.1,0.3,0.3,0.5,0.5,0.8c0.3,0.3,0.7,0.4,1.1,0.4
		S13.3,17.7,13.6,17.5z"/>
	<path class="st1" d="M11.7,7.3c-0.2,0.2-0.3,0.3-0.4,0.6c0,0,0.6-0.1,1.2-0.1c0.6,0,1.2,0.1,1.2,0.1c-0.1-0.3-0.3-0.4-0.4-0.6
		c-0.2-0.3-0.4-0.3-0.8-0.3C12.2,6.9,11.9,7.1,11.7,7.3z"/>
</g>
</svg>
