<?xml version="1.0" encoding="utf-8"?>
<!-- Generator: Adobe Illustrator 27.1.1, SVG Export Plug-In . SVG Version: 6.00 Build 0)  -->
<svg version="1.1" id="Layer_1" xmlns="http://www.w3.org/2000/svg" xmlns:xlink="http://www.w3.org/1999/xlink" x="0px" y="0px"
	 viewBox="0 0 35 25" style="enable-background:new 0 0 35 25;" xml:space="preserve">
<style type="text/css">
	.st0{fill:#FFFFFF;}
</style>
<g>
	<g>
		<path class="st0" d="M13.5,8.5c-1.7,1.7-1.7,4.4,0,6.2c1.7,1.7,4.4,1.7,6.2,0s1.7-4.4,0-6.2S15.2,6.7,13.5,8.5z M19.1,14.1
			c-1.4,1.4-3.6,1.4-5.1,0c-1.4-1.4-1.4-3.6,0-5.1c1.4-1.4,3.6-1.4,5.1,0C20.5,10.4,20.5,12.7,19.1,14.1z"/>
		<path class="st0" d="M22.2,17.8l-2.9-3c-0.2-0.2-0.2-0.4,0-0.5l0,0c0.2-0.2,0.4-0.2,0.5,0l2.9,2.9c0.2,0.2,0.2,0.4,0,0.5l0,0
			C22.6,17.9,22.3,17.9,22.2,17.8z"/>
	</g>
</g>
</svg>
