<?xml version="1.0" encoding="utf-8"?>
<!-- Generator: Adobe Illustrator 27.1.1, SVG Export Plug-In . SVG Version: 6.00 Build 0)  -->
<svg version="1.1" id="Layer_1" xmlns="http://www.w3.org/2000/svg" xmlns:xlink="http://www.w3.org/1999/xlink" x="0px" y="0px"
	 viewBox="0 0 25 25" style="enable-background:new 0 0 25 25;" xml:space="preserve">
<style type="text/css">
	.st0{fill:#FFFFFF;}
	.st1{fill-rule:evenodd;clip-rule:evenodd;fill:#FFFFFF;}
</style>
<g>
	<g>
		<path class="st0" d="M15.8,5.3L15.8,5.3c0.9,0,1.6,0.4,2,1.2c0.3,0.5,0.3,1.2,0.2,1.7c-0.2,0.5-0.5,1.1-1.2,1.4l-1.3,0.6
			c-0.3,0.2-0.5,0.5-0.4,0.9s0.4,0.6,0.8,0.6c0.9,0,1.6,0.5,1.9,1.2c0.3,0.5,0.3,1.2,0.2,1.7c-0.2,0.5-0.5,1.1-1.2,1.4l-6.7,3.4
			c-0.3,0.2-0.6,0.2-1.1,0.2c-0.9,0-1.6-0.4-2-1.2c-0.3-0.5-0.3-1.2-0.2-1.7c0.2-0.5,0.5-1.1,1.2-1.4l1.3-0.6
			c0.3-0.2,0.5-0.5,0.4-0.9s-0.4-0.6-0.8-0.6c-0.9,0-1.6-0.5-1.9-1.2c-0.3-0.5-0.3-1.2-0.2-1.7C7.1,9.8,7.5,9.3,8.1,9l6.7-3.4
			C15.1,5.3,15.4,5.3,15.8,5.3 M15.8,4.5c-0.5,0-1,0.1-1.4,0.3L7.7,8.3C6.2,9.1,5.5,11,6.4,12.5c0.5,1,1.6,1.6,2.7,1.6l-1.3,0.6
			c-1.5,0.8-2.1,2.7-1.3,4.2C7,20,8.1,20.5,9.3,20.5c0.5,0,1-0.1,1.4-0.3l6.7-3.5c1.5-0.8,2.1-2.7,1.3-4.2c-0.5-1-1.6-1.6-2.7-1.6
			l1.3-0.6c1.5-0.8,2.1-2.7,1.3-4.2C18,5.1,16.9,4.5,15.8,4.5L15.8,4.5z"/>
	</g>
	<polygon class="st1" points="10.8,10 14.8,12.5 10.8,15 	"/>
</g>
</svg>
