<?xml version="1.0" encoding="utf-8"?>
<!-- Generator: Adobe Illustrator 27.1.1, SVG Export Plug-In . SVG Version: 6.00 Build 0)  -->
<svg version="1.1" id="Layer_1" xmlns="http://www.w3.org/2000/svg" xmlns:xlink="http://www.w3.org/1999/xlink" x="0px" y="0px"
	 viewBox="0 0 88.7 21.7" style="enable-background:new 0 0 88.7 21.7;" xml:space="preserve">
<style type="text/css">
	.st0{fill:#FF0000;}
	.st1{fill:#FFFFFF;}
	.st2{fill:#C8C8C8;}
</style>
<g>
	<g id="g7433">
		<path id="path7429" class="st0" d="M25,4.9c-0.3-1.1-1.2-2-2.3-2.3c-2-0.5-10-0.5-10-0.5s-8,0-10,0.5c-1.1,0.3-2,1.2-2.3,2.3
			C0,6.9,0,11.1,0,11.1s0,4.2,0.5,6.1c0.3,1.1,1.2,2,2.3,2.3c2,0.5,10,0.5,10,0.5s8,0,10-0.5c1.1-0.3,2-1.2,2.3-2.3
			c0.5-2,0.5-6.1,0.5-6.1S25.6,6.9,25,4.9L25,4.9z"/>
		<path id="polygon7431" class="st1" d="M10.2,7.2v7.7l6.6-3.8L10.2,7.2z"/>
	</g>
	<g id="g7451">
		<g id="g7449">
			<path id="path7435" class="st1" d="M37.1,18.4c-0.5-0.3-0.9-0.9-1.1-1.6c-0.2-0.7-0.3-1.7-0.3-2.9v-1.6c0-1.2,0.1-2.2,0.4-2.9
				c0.3-0.7,0.6-1.3,1.1-1.6c0.5-0.3,1.2-0.5,2-0.5c0.8,0,1.5,0.2,2,0.5c0.5,0.3,0.9,0.9,1.1,1.6c0.2,0.7,0.4,1.7,0.4,2.9v1.6
				c0,1.2-0.1,2.1-0.3,2.9c-0.2,0.7-0.6,1.3-1.1,1.6s-1.2,0.5-2.1,0.5C38.3,18.9,37.6,18.7,37.1,18.4L37.1,18.4z M39.9,16.6
				c0.1-0.4,0.2-1,0.2-1.8v-3.5c0-0.8-0.1-1.4-0.2-1.8C39.8,9.2,39.6,9,39.2,9c-0.3,0-0.6,0.2-0.7,0.5c-0.1,0.4-0.2,1-0.2,1.8v3.5
				c0,0.8,0.1,1.4,0.2,1.8c0.1,0.4,0.4,0.5,0.7,0.5C39.6,17.2,39.8,17,39.9,16.6z"/>
			<path id="path7437" class="st1" d="M75.9,14v0.6c0,0.7,0,1.3,0.1,1.6c0,0.4,0.1,0.6,0.3,0.8c0.1,0.2,0.3,0.3,0.6,0.3
				c0.4,0,0.6-0.1,0.8-0.4s0.2-0.8,0.2-1.5l2.2,0.1c0,0.1,0,0.2,0,0.4c0,1-0.3,1.8-0.8,2.3s-1.4,0.8-2.4,0.8c-1.2,0-2.1-0.4-2.6-1.2
				s-0.8-2-0.8-3.6v-2c0-1.7,0.3-2.9,0.8-3.7c0.5-0.8,1.4-1.2,2.7-1.2c0.9,0,1.5,0.2,2,0.5s0.8,0.8,1,1.5c0.2,0.7,0.3,1.6,0.3,2.8
				v1.9L75.9,14L75.9,14z M76.2,9.2C76.1,9.4,76,9.7,76,10c0,0.4-0.1,0.9-0.1,1.6v0.8h1.9v-0.8c0-0.7,0-1.3-0.1-1.6
				c0-0.4-0.1-0.6-0.3-0.8C77.3,9.1,77.1,9,76.9,9C76.6,9,76.4,9.1,76.2,9.2L76.2,9.2z"/>
			<path id="path7439" class="st1" d="M30.9,13.8L28.1,3.4h2.5l1,4.7c0.3,1.2,0.4,2.1,0.6,3h0.1c0.1-0.6,0.3-1.6,0.6-2.9l1.1-4.7
				h2.5l-2.9,10.4v5H31L30.9,13.8L30.9,13.8z"/>
			<path id="path7441" class="st1" d="M50.8,7.5v11.2h-2l-0.2-1.4h-0.1c-0.5,1-1.3,1.6-2.4,1.6c-0.7,0-1.3-0.3-1.6-0.7
				c-0.4-0.5-0.5-1.2-0.5-2.3V7.5h2.5v8.2c0,0.5,0.1,0.9,0.2,1.1c0.1,0.2,0.3,0.3,0.5,0.3c0.2,0,0.4-0.1,0.6-0.2
				c0.2-0.1,0.4-0.3,0.4-0.5V7.5H50.8z"/>
			<path id="path7443" class="st1" d="M63.8,7.5v11.2h-2l-0.2-1.4h-0.1c-0.5,1-1.3,1.6-2.4,1.6c-0.7,0-1.3-0.3-1.6-0.7
				c-0.4-0.5-0.5-1.2-0.5-2.3V7.5h2.5v8.2c0,0.5,0.1,0.9,0.2,1.1c0.1,0.2,0.3,0.3,0.5,0.3c0.2,0,0.4-0.1,0.6-0.2
				c0.2-0.1,0.4-0.3,0.4-0.5V7.5H63.8z"/>
			<path id="path7445" class="st1" d="M57.7,5.4h-2.5v13.3h-2.5V5.4h-2.5v-2h7.5V5.4z"/>
			<path id="path7447" class="st1" d="M72.1,9.3c-0.1-0.7-0.4-1.2-0.7-1.5c-0.3-0.3-0.8-0.5-1.4-0.5c-0.5,0-0.9,0.1-1.3,0.4
				c-0.4,0.3-0.7,0.6-0.9,1h0V2.8h-2.4v15.9h2.1l0.3-1.1h0.1c0.2,0.4,0.5,0.7,0.9,0.9c0.4,0.2,0.8,0.3,1.3,0.3
				c0.9,0,1.5-0.4,1.9-1.2c0.4-0.8,0.6-2,0.6-3.7v-1.8C72.3,11,72.3,10,72.1,9.3L72.1,9.3z M69.8,13.9c0,0.8,0,1.5-0.1,1.9
				c-0.1,0.5-0.2,0.8-0.3,1c-0.2,0.2-0.4,0.3-0.6,0.3c-0.2,0-0.4,0-0.6-0.1c-0.2-0.1-0.3-0.3-0.4-0.4v-6.4c0.1-0.3,0.2-0.5,0.4-0.8
				c0.2-0.2,0.4-0.3,0.7-0.3c0.3,0,0.5,0.1,0.6,0.3c0.1,0.2,0.2,0.5,0.3,1c0.1,0.5,0.1,1.2,0.1,2L69.8,13.9L69.8,13.9z"/>
		</g>
	</g>
	<g>
		<path class="st2" d="M83.2,0v5.6h-0.7V0H83.2z"/>
		<path class="st2" d="M84.5,5.6V0h0.8l1.8,2.8c0.4,0.7,0.7,1.3,1,1.8l0,0C88,3.9,88,3.2,88,2.4V0h0.7v5.6h-0.7l-1.8-2.9
			c-0.4-0.6-0.8-1.3-1.1-1.9l0,0c0,0.7,0.1,1.4,0.1,2.3v2.4H84.5z"/>
	</g>
</g>
</svg>
